<svg width="25" height="25" viewBox="0 0 25 25" fill="none" xmlns="http://www.w3.org/2000/svg">
<path d="M9.37498 13.5417H11.4583V15.625C11.4583 15.9013 11.5681 16.1662 11.7634 16.3616C11.9588 16.5569 12.2237 16.6667 12.5 16.6667C12.7762 16.6667 13.0412 16.5569 13.2366 16.3616C13.4319 16.1662 13.5416 15.9013 13.5416 15.625V13.5417H15.625C15.9012 13.5417 16.1662 13.4319 16.3616 13.2366C16.5569 13.0412 16.6666 12.7763 16.6666 12.5C16.6666 12.2237 16.5569 11.9588 16.3616 11.7634C16.1662 11.5681 15.9012 11.4583 15.625 11.4583H13.5416V9.37501C13.5416 9.09874 13.4319 8.83379 13.2366 8.63844C13.0412 8.44309 12.7762 8.33334 12.5 8.33334C12.2237 8.33334 11.9588 8.44309 11.7634 8.63844C11.5681 8.83379 11.4583 9.09874 11.4583 9.37501V11.4583H9.37498C9.09871 11.4583 8.83376 11.5681 8.63841 11.7634C8.44306 11.9588 8.33331 12.2237 8.33331 12.5C8.33331 12.7763 8.44306 13.0412 8.63841 13.2366C8.83376 13.4319 9.09871 13.5417 9.37498 13.5417ZM21.875 2.08334H3.12498C2.84871 2.08334 2.58376 2.19309 2.38841 2.38844C2.19306 2.58379 2.08331 2.84874 2.08331 3.12501V21.875C2.08331 22.1513 2.19306 22.4162 2.38841 22.6116C2.58376 22.8069 2.84871 22.9167 3.12498 22.9167H21.875C22.1512 22.9167 22.4162 22.8069 22.6116 22.6116C22.8069 22.4162 22.9166 22.1513 22.9166 21.875V3.12501C22.9166 2.84874 22.8069 2.58379 22.6116 2.38844C22.4162 2.19309 22.1512 2.08334 21.875 2.08334ZM20.8333 20.8333H4.16665V4.16668H20.8333V20.8333Z" fill="black"/>
</svg>
