<svg width="25" height="25" viewBox="0 0 25 25" fill="none" xmlns="http://www.w3.org/2000/svg">
<path d="M3.12498 8.33333H21.875C22.1512 8.33333 22.4162 8.22359 22.6116 8.02824C22.8069 7.83289 22.9166 7.56793 22.9166 7.29167C22.9166 7.0154 22.8069 6.75045 22.6116 6.5551C22.4162 6.35975 22.1512 6.25 21.875 6.25H3.12498C2.84871 6.25 2.58376 6.35975 2.38841 6.5551C2.19306 6.75045 2.08331 7.0154 2.08331 7.29167C2.08331 7.56793 2.19306 7.83289 2.38841 8.02824C2.58376 8.22359 2.84871 8.33333 3.12498 8.33333ZM21.875 16.6667H3.12498C2.84871 16.6667 2.58376 16.7764 2.38841 16.9718C2.19306 17.1671 2.08331 17.4321 2.08331 17.7083C2.08331 17.9846 2.19306 18.2496 2.38841 18.4449C2.58376 18.6403 2.84871 18.75 3.12498 18.75H21.875C22.1512 18.75 22.4162 18.6403 22.6116 18.4449C22.8069 18.2496 22.9166 17.9846 22.9166 17.7083C22.9166 17.4321 22.8069 17.1671 22.6116 16.9718C22.4162 16.7764 22.1512 16.6667 21.875 16.6667ZM21.875 11.4583H3.12498C2.84871 11.4583 2.58376 11.5681 2.38841 11.7634C2.19306 11.9588 2.08331 12.2237 2.08331 12.5C2.08331 12.7763 2.19306 13.0412 2.38841 13.2366C2.58376 13.4319 2.84871 13.5417 3.12498 13.5417H21.875C22.1512 13.5417 22.4162 13.4319 22.6116 13.2366C22.8069 13.0412 22.9166 12.7763 22.9166 12.5C22.9166 12.2237 22.8069 11.9588 22.6116 11.7634C22.4162 11.5681 22.1512 11.4583 21.875 11.4583Z" fill="black"/>
</svg>
