<svg width="25" height="25" viewBox="0 0 25 25" fill="none" xmlns="http://www.w3.org/2000/svg">
<path d="M16.3646 13.2396C17.3858 12.4361 18.1312 11.3343 18.4971 10.0874C18.863 8.84058 18.8312 7.51069 18.406 6.28278C17.9809 5.05486 17.1836 3.98999 16.1251 3.23631C15.0665 2.48262 13.7994 2.07761 12.5 2.07761C11.2006 2.07761 9.93345 2.48262 8.87492 3.23631C7.8164 3.98999 7.01911 5.05486 6.59397 6.28278C6.16883 7.51069 6.13699 8.84058 6.50287 10.0874C6.86876 11.3343 7.61417 12.4361 8.63541 13.2396C6.88549 13.9407 5.35863 15.1035 4.21759 16.6041C3.07656 18.1047 2.36412 19.8868 2.15625 21.7604C2.1412 21.8972 2.15324 22.0356 2.19169 22.1678C2.23014 22.2999 2.29423 22.4232 2.38032 22.5305C2.55418 22.7474 2.80706 22.8863 3.08333 22.9167C3.3596 22.9471 3.63662 22.8665 3.85346 22.6926C4.0703 22.5187 4.20919 22.2659 4.23958 21.9896C4.46831 19.9533 5.43925 18.0727 6.96689 16.7071C8.49453 15.3414 10.4718 14.5865 12.5208 14.5865C14.5699 14.5865 16.5471 15.3414 18.0748 16.7071C19.6024 18.0727 20.5733 19.9533 20.8021 21.9896C20.8304 22.2455 20.9525 22.4819 21.1449 22.6531C21.3373 22.8243 21.5862 22.9182 21.8437 22.9167H21.9583C22.2314 22.8852 22.481 22.7472 22.6527 22.5326C22.8244 22.3179 22.9043 22.0441 22.875 21.7708C22.6661 19.8919 21.9499 18.1052 20.803 16.6023C19.6561 15.0994 18.1218 13.937 16.3646 13.2396ZM12.5 12.5C11.6759 12.5 10.8703 12.2556 10.1851 11.7978C9.49992 11.3399 8.96586 10.6892 8.6505 9.92785C8.33513 9.16649 8.25262 8.32871 8.41339 7.52046C8.57416 6.7122 8.971 5.96977 9.55372 5.38705C10.1364 4.80433 10.8789 4.4075 11.6871 4.24673C12.4954 4.08595 13.3332 4.16847 14.0945 4.48383C14.8559 4.7992 15.5066 5.33325 15.9645 6.01846C16.4223 6.70366 16.6667 7.50924 16.6667 8.33333C16.6667 9.4384 16.2277 10.4982 15.4463 11.2796C14.6649 12.061 13.6051 12.5 12.5 12.5Z" fill="black"/>
</svg>
