<svg width="25" height="25" viewBox="0 0 25 25" fill="none" xmlns="http://www.w3.org/2000/svg">
<path d="M21.7708 2.08334H3.22918C2.92528 2.08334 2.63384 2.20407 2.41895 2.41895C2.20407 2.63384 2.08334 2.92528 2.08334 3.22918V21.7708C2.08334 21.9213 2.11298 22.0703 2.17056 22.2093C2.22815 22.3484 2.31255 22.4747 2.41895 22.5811C2.52535 22.6875 2.65167 22.7719 2.79069 22.8295C2.9297 22.887 3.0787 22.9167 3.22918 22.9167H13.2083V14.8438H10.5V11.7188H13.2083V9.37501C13.1522 8.82476 13.2172 8.26889 13.3987 7.7464C13.5801 7.22391 13.8737 6.74745 14.2588 6.35044C14.6439 5.95342 15.1112 5.64547 15.628 5.44817C16.1447 5.25088 16.6983 5.16902 17.25 5.20834C18.0608 5.20335 18.8711 5.24509 19.6771 5.33334V8.14584H18.0208C16.7083 8.14584 16.4583 8.77084 16.4583 9.67709V11.6875H19.5833L19.1771 14.8125H16.4583V22.9167H21.7708C21.9213 22.9167 22.0703 22.887 22.2093 22.8295C22.3484 22.7719 22.4747 22.6875 22.5811 22.5811C22.6875 22.4747 22.7719 22.3484 22.8295 22.2093C22.887 22.0703 22.9167 21.9213 22.9167 21.7708V3.22918C22.9167 3.0787 22.887 2.9297 22.8295 2.79069C22.7719 2.65167 22.6875 2.52535 22.5811 2.41895C22.4747 2.31255 22.3484 2.22815 22.2093 2.17056C22.0703 2.11298 21.9213 2.08334 21.7708 2.08334Z" fill="white"/>
</svg>
