<svg width="25" height="25" viewBox="0 0 25 25" fill="none" xmlns="http://www.w3.org/2000/svg">
<path d="M22.9166 6.04167C22.1337 6.38135 21.3056 6.6059 20.4583 6.70834C21.3522 6.1743 22.0221 5.33415 22.3437 4.34375C21.5037 4.84382 20.5841 5.19615 19.625 5.38542C18.9839 4.69018 18.1302 4.2274 17.1977 4.06964C16.2652 3.91189 15.3068 4.06809 14.4727 4.51374C13.6386 4.9594 12.976 5.66931 12.5888 6.53213C12.2016 7.39494 12.1117 8.36187 12.3333 9.28125C10.6348 9.19534 8.97336 8.75308 7.45691 7.98319C5.94047 7.21331 4.60294 6.13302 3.53123 4.8125C3.15533 5.46893 2.95781 6.21232 2.95831 6.96876C2.95698 7.67124 3.12937 8.36315 3.46014 8.98288C3.79091 9.60262 4.26979 10.131 4.85415 10.5208C4.17496 10.5024 3.51028 10.3201 2.91665 9.98959V10.0417C2.92174 11.0259 3.26664 11.9782 3.89302 12.7375C4.51939 13.4967 5.38879 14.0163 6.35415 14.2083C5.98254 14.3214 5.59672 14.3811 5.20831 14.3854C4.93945 14.3823 4.67125 14.3579 4.40623 14.3125C4.68114 15.1592 5.21313 15.8991 5.92818 16.4293C6.64324 16.9596 7.50579 17.2537 8.39581 17.2708C6.8929 18.4534 5.03736 19.0988 3.12498 19.1042C2.77679 19.1053 2.42887 19.0844 2.08331 19.0417C4.03584 20.3024 6.31124 20.9716 8.6354 20.9688C10.2392 20.9854 11.8303 20.6823 13.3157 20.0772C14.8011 19.472 16.151 18.577 17.2867 17.4443C18.4223 16.3116 19.3208 14.964 19.9297 13.4801C20.5387 11.9963 20.8459 10.406 20.8333 8.80209C20.8333 8.625 20.8333 8.4375 20.8333 8.25C21.6507 7.64043 22.3557 6.89316 22.9166 6.04167Z" fill="white"/>
</svg>
