<svg width="25" height="25" viewBox="0 0 25 25" fill="none" xmlns="http://www.w3.org/2000/svg">
<path d="M12.5 9.91668C11.989 9.91668 11.4896 10.0682 11.0648 10.352C10.6399 10.6359 10.3088 11.0394 10.1133 11.5114C9.91776 11.9835 9.86661 12.5029 9.96629 13.004C10.066 13.5051 10.312 13.9654 10.6733 14.3267C11.0346 14.688 11.4949 14.934 11.996 15.0337C12.4971 15.1334 13.0165 15.0822 13.4886 14.8867C13.9606 14.6912 14.3641 14.3601 14.6479 13.9352C14.9318 13.5104 15.0833 13.0109 15.0833 12.5C15.0833 12.1608 15.0165 11.8248 14.8867 11.5114C14.7568 11.198 14.5666 10.9132 14.3267 10.6733C14.0868 10.4334 13.802 10.2431 13.4886 10.1133C13.1752 9.9835 12.8392 9.91668 12.5 9.91668ZM22.8437 7.36459C22.8383 6.56018 22.6901 5.76311 22.4062 5.01043C22.1972 4.45966 21.8736 3.95948 21.4571 3.54291C21.0405 3.12634 20.5403 2.80284 19.9896 2.59376C19.2369 2.30987 18.4398 2.16174 17.6354 2.15626C16.2916 2.08334 15.8958 2.08334 12.5 2.08334C9.10415 2.08334 8.70831 2.08334 7.36456 2.15626C6.56014 2.16174 5.76308 2.30987 5.0104 2.59376C4.45963 2.80284 3.95945 3.12634 3.54288 3.54291C3.12631 3.95948 2.80281 4.45966 2.59373 5.01043C2.30984 5.76311 2.16171 6.56018 2.15623 7.36459C2.08331 8.70834 2.08331 9.10418 2.08331 12.5C2.08331 15.8958 2.08331 16.2917 2.15623 17.6354C2.16744 18.4427 2.31537 19.2422 2.59373 20C2.80188 20.5483 3.12511 21.0455 3.54165 21.4583C3.95643 21.8774 4.45768 22.2009 5.0104 22.4063C5.76308 22.6902 6.56014 22.8383 7.36456 22.8438C8.70831 22.9167 9.10415 22.9167 12.5 22.9167C15.8958 22.9167 16.2916 22.9167 17.6354 22.8438C18.4398 22.8383 19.2369 22.6902 19.9896 22.4063C20.5423 22.2009 21.0435 21.8774 21.4583 21.4583C21.8748 21.0455 22.1981 20.5483 22.4062 20C22.6898 19.2436 22.8379 18.4432 22.8437 17.6354C22.9166 16.2917 22.9166 15.8958 22.9166 12.5C22.9166 9.10418 22.9166 8.70834 22.8437 7.36459ZM20.1979 15.6979C20.1645 16.3407 20.0273 16.9739 19.7916 17.5729C19.5894 18.0726 19.2888 18.5265 18.9076 18.9077C18.5265 19.2888 18.0726 19.5895 17.5729 19.7917C16.9682 20.0142 16.3315 20.1373 15.6875 20.1563C14.8646 20.1563 14.6458 20.1563 12.5 20.1563C10.3541 20.1563 10.1354 20.1563 9.31248 20.1563C8.66845 20.1373 8.03174 20.0142 7.42706 19.7917C6.9105 19.5997 6.44402 19.2935 6.06248 18.8958C5.68505 18.5221 5.39357 18.0707 5.20831 17.5729C4.98494 16.9689 4.8652 16.3314 4.85415 15.6875C4.85415 14.8646 4.85415 14.6458 4.85415 12.5C4.85415 10.3542 4.85415 10.1354 4.85415 9.31251C4.8652 8.66858 4.98494 8.03114 5.20831 7.42709C5.40027 6.91053 5.70652 6.44405 6.10415 6.06251C6.47949 5.68712 6.93046 5.39594 7.42706 5.20834C8.03174 4.98585 8.66845 4.86273 9.31248 4.84376C10.1354 4.84376 10.3541 4.84376 12.5 4.84376C14.6458 4.84376 14.8646 4.84376 15.6875 4.84376C16.3315 4.86273 16.9682 4.98585 17.5729 5.20834C18.0895 5.4003 18.5559 5.70655 18.9375 6.10418C19.3149 6.47787 19.6064 6.92932 19.7916 7.42709C20.0141 8.03177 20.1373 8.66848 20.1562 9.31251C20.1562 10.1354 20.1562 10.3542 20.1562 12.5C20.1562 14.6458 20.2291 14.8646 20.1979 15.6875V15.6979ZM18.5312 7.94793C18.4072 7.61145 18.2117 7.30589 17.9581 7.05232C17.7045 6.79874 17.399 6.6032 17.0625 6.47918C16.6005 6.31903 16.1139 6.24146 15.625 6.25001C14.8125 6.25001 14.5833 6.25001 12.5 6.25001C10.4166 6.25001 10.1875 6.25001 9.37498 6.25001C8.88359 6.25481 8.39693 6.3465 7.93748 6.52084C7.60616 6.63924 7.30383 6.82679 7.05059 7.07105C6.79735 7.31531 6.599 7.61067 6.46873 7.93751C6.31746 8.40143 6.24355 8.88709 6.24998 9.37501C6.24998 10.1875 6.24998 10.4167 6.24998 12.5C6.24998 14.5833 6.24998 14.8125 6.24998 15.625C6.26031 16.1158 6.35182 16.6016 6.52081 17.0625C6.64484 17.399 6.84038 17.7045 7.09395 17.9581C7.34752 18.2117 7.65309 18.4072 7.98956 18.5313C8.43401 18.6947 8.9017 18.7861 9.37498 18.8021C10.1875 18.8021 10.4166 18.8021 12.5 18.8021C14.5833 18.8021 14.8125 18.8021 15.625 18.8021C16.1164 18.7973 16.603 18.7056 17.0625 18.5313C17.399 18.4072 17.7045 18.2117 17.9581 17.9581C18.2117 17.7045 18.4072 17.399 18.5312 17.0625C18.7056 16.6031 18.7973 16.1164 18.8021 15.625C18.8021 14.8125 18.8021 14.5833 18.8021 12.5C18.8021 10.4167 18.8021 10.1875 18.8021 9.37501C18.8024 8.88313 18.7105 8.39555 18.5312 7.93751V7.94793ZM12.5 16.4792C11.9779 16.4792 11.461 16.3762 10.9788 16.1761C10.4966 15.976 10.0586 15.6827 9.68996 15.3131C9.32129 14.9434 9.02917 14.5047 8.83034 14.022C8.6315 13.5393 8.52986 13.0221 8.53123 12.5C8.53123 11.7126 8.76487 10.9428 9.20257 10.2882C9.64027 9.63363 10.2623 9.12362 10.9901 8.82275C11.7178 8.52189 12.5184 8.4437 13.2905 8.59808C14.0627 8.75247 14.7717 9.13248 15.3278 9.69002C15.8839 10.2476 16.262 10.9576 16.4144 11.7301C16.5667 12.5027 16.4864 13.3031 16.1837 14.03C15.8809 14.7569 15.3693 15.3777 14.7135 15.8136C14.0578 16.2496 13.2874 16.4812 12.5 16.4792ZM16.6666 9.30209C16.4364 9.27772 16.2233 9.16899 16.0684 8.99685C15.9135 8.82472 15.8278 8.60136 15.8278 8.3698C15.8278 8.13825 15.9135 7.91489 16.0684 7.74275C16.2233 7.57061 16.4364 7.46188 16.6666 7.43751C16.8969 7.46188 17.11 7.57061 17.2649 7.74275C17.4198 7.91489 17.5055 8.13825 17.5055 8.3698C17.5055 8.60136 17.4198 8.82472 17.2649 8.99685C17.11 9.16899 16.8969 9.27772 16.6666 9.30209Z" fill="white"/>
</svg>
