<svg width="25" height="25" viewBox="0 0 25 25" fill="none" xmlns="http://www.w3.org/2000/svg">
<path d="M22.5625 10.6771L13.1875 2.34375C12.9974 2.17675 12.753 2.08466 12.5 2.08466C12.247 2.08466 12.0026 2.17675 11.8125 2.34375L2.43749 10.6771C2.27815 10.818 2.16579 11.0044 2.11551 11.2111C2.06523 11.4178 2.07945 11.6349 2.15624 11.8333C2.23178 12.0291 2.36468 12.1975 2.53754 12.3164C2.7104 12.4354 2.91516 12.4994 3.12499 12.5H4.16666V21.875C4.16666 22.1513 4.27641 22.4162 4.47176 22.6116C4.66711 22.8069 4.93206 22.9167 5.20833 22.9167H19.7917C20.0679 22.9167 20.3329 22.8069 20.5282 22.6116C20.7236 22.4162 20.8333 22.1513 20.8333 21.875V12.5H21.875C22.0848 12.4994 22.2896 12.4354 22.4624 12.3164C22.6353 12.1975 22.7682 12.0291 22.8437 11.8333C22.9205 11.6349 22.9348 11.4178 22.8845 11.2111C22.8342 11.0044 22.7218 10.818 22.5625 10.6771ZM13.5417 20.8333H11.4583V17.7083C11.4583 17.4321 11.5681 17.1671 11.7634 16.9718C11.9588 16.7764 12.2237 16.6667 12.5 16.6667C12.7763 16.6667 13.0412 16.7764 13.2366 16.9718C13.4319 17.1671 13.5417 17.4321 13.5417 17.7083V20.8333ZM18.75 20.8333H15.625V17.7083C15.625 16.8795 15.2958 16.0847 14.7097 15.4986C14.1237 14.9126 13.3288 14.5833 12.5 14.5833C11.6712 14.5833 10.8763 14.9126 10.2903 15.4986C9.70423 16.0847 9.37499 16.8795 9.37499 17.7083V20.8333H6.24999V12.5H18.75V20.8333ZM5.86458 10.4167L12.5 4.52084L19.1354 10.4167H5.86458Z" fill="black"/>
</svg>
