<svg width="25" height="25" viewBox="0 0 25 25" fill="none" xmlns="http://www.w3.org/2000/svg">
<path d="M14.3646 10.6354C14.4614 10.733 14.5766 10.8105 14.7036 10.8634C14.8305 10.9163 14.9667 10.9435 15.1042 10.9435C15.2417 10.9435 15.3778 10.9163 15.5048 10.8634C15.6317 10.8105 15.7469 10.733 15.8438 10.6354C15.9414 10.5386 16.0189 10.4234 16.0718 10.2964C16.1246 10.1695 16.1519 10.0333 16.1519 9.89583C16.1519 9.75832 16.1246 9.62216 16.0718 9.49523C16.0189 9.36829 15.9414 9.25308 15.8438 9.15625L13.2396 6.55208C13.1405 6.45724 13.0237 6.38291 12.8958 6.33333C12.6422 6.22914 12.3578 6.22914 12.1042 6.33333C11.9763 6.38291 11.8595 6.45724 11.7604 6.55208L9.15625 9.15625C8.9601 9.3524 8.8499 9.61843 8.8499 9.89583C8.8499 10.1732 8.9601 10.4393 9.15625 10.6354C9.3524 10.8316 9.61844 10.9418 9.89583 10.9418C10.1732 10.9418 10.4393 10.8316 10.6354 10.6354L11.4583 9.80208V15.1979L10.6354 14.3646C10.4393 14.1684 10.1732 14.0582 9.89583 14.0582C9.61844 14.0582 9.3524 14.1684 9.15625 14.3646C8.9601 14.5607 8.8499 14.8268 8.8499 15.1042C8.8499 15.3816 8.9601 15.6476 9.15625 15.8437L11.7604 18.4479C11.8595 18.5427 11.9763 18.6171 12.1042 18.6667C12.2289 18.7218 12.3637 18.7502 12.5 18.7502C12.6363 18.7502 12.7711 18.7218 12.8958 18.6667C13.0237 18.6171 13.1405 18.5427 13.2396 18.4479L15.8438 15.8437C16.0399 15.6476 16.1501 15.3816 16.1501 15.1042C16.1501 14.8268 16.0399 14.5607 15.8438 14.3646C15.6476 14.1684 15.3816 14.0582 15.1042 14.0582C14.8268 14.0582 14.5607 14.1684 14.3646 14.3646L13.5417 15.1979V9.80208L14.3646 10.6354ZM7.29167 4.16666H17.7083C17.9846 4.16666 18.2496 4.05692 18.4449 3.86156C18.6403 3.66621 18.75 3.40126 18.75 3.12499C18.75 2.84873 18.6403 2.58378 18.4449 2.38843C18.2496 2.19307 17.9846 2.08333 17.7083 2.08333H7.29167C7.0154 2.08333 6.75045 2.19307 6.5551 2.38843C6.35975 2.58378 6.25 2.84873 6.25 3.12499C6.25 3.40126 6.35975 3.66621 6.5551 3.86156C6.75045 4.05692 7.0154 4.16666 7.29167 4.16666ZM17.7083 20.8333H7.29167C7.0154 20.8333 6.75045 20.9431 6.5551 21.1384C6.35975 21.3338 6.25 21.5987 6.25 21.875C6.25 22.1513 6.35975 22.4162 6.5551 22.6116C6.75045 22.8069 7.0154 22.9167 7.29167 22.9167H17.7083C17.9846 22.9167 18.2496 22.8069 18.4449 22.6116C18.6403 22.4162 18.75 22.1513 18.75 21.875C18.75 21.5987 18.6403 21.3338 18.4449 21.1384C18.2496 20.9431 17.9846 20.8333 17.7083 20.8333Z" fill="black"/>
</svg>
