<svg width="339" height="22" viewBox="0 0 339 22" fill="none" xmlns="http://www.w3.org/2000/svg">
<path d="M2.5 3.41211L44 1.41211L52.5 17.4121V21.9121H0.5L2.5 3.41211Z" fill="#5D5F71"/>
<path d="M63 2.91211L104.5 0.912109L113 16.9121V21.4121H61L63 2.91211Z" fill="#5D5F71"/>
<path d="M119 2.91211L160.5 0.912109L169 16.9121V21.4121H117L119 2.91211Z" fill="#5D5F71"/>
<path d="M176 2.91211L217.5 0.912109L226 16.9121V21.4121H174L176 2.91211Z" fill="#5D5F71"/>
<path d="M232 2.91211L273.5 0.912109L282 16.9121V21.4121H230L232 2.91211Z" fill="#5D5F71"/>
<path d="M289 2.91211L330.5 0.912109L339 16.9121V21.4121H287L289 2.91211Z" fill="#5D5F71"/>
</svg>
